PathFileType	4	(X/Y/Z)	C:/Users/opensim2020/Desktop/walking_exp_matlab/subject02_walking10_straight_04.trc																																																																																																																															
DataRate	CameraRate	NumFrames	NumMarkers	Units	OrigDataRate	OrigDataStartFrame	OrigNumFrames																																																																																																																											
100	100	4	43	mm	100	3117	260																																																																																																																											
Frame#	Time	LFHD			RFHD			LBHD			RBHD			C7			T10			CLAV			STRN			RBAK			LSHO			LUPA			LELB			LFRM			LWRA			LWRB			LFIN			RSHO			RUPA			RELB			RFRM			RWRA			RWRB			RFIN			LASI			RASI			LPSI			RPSI			LTHI			LKNE			LTIB			LANK			LHEE			LTOE			RTHI			RKNE			RTIB			RANK			RHEE			RTOE			*39			*40			*41			*42		
		X1	Y1	Z1	X2	Y2	Z2	X3	Y3	Z3	X4	Y4	Z4	X5	Y5	Z5	X6	Y6	Z6	X7	Y7	Z7	X8	Y8	Z8	X9	Y9	Z9	X10	Y10	Z10	X11	Y11	Z11	X12	Y12	Z12	X13	Y13	Z13	X14	Y14	Z14	X15	Y15	Z15	X16	Y16	Z16	X17	Y17	Z17	X18	Y18	Z18	X19	Y19	Z19	X20	Y20	Z20	X21	Y21	Z21	X22	Y22	Z22	X23	Y23	Z23	X24	Y24	Z24	X25	Y25	Z25	X26	Y26	Z26	X27	Y27	Z27	X28	Y28	Z28	X29	Y29	Z29	X30	Y30	Z30	X31	Y31	Z31	X32	Y32	Z32	X33	Y33	Z33	X34	Y34	Z34	X35	Y35	Z35	X36	Y36	Z36	X37	Y37	Z37	X38	Y38	Z38	X39	Y39	Z39	X40	Y40	Z40	X41	Y41	Z41	X42	Y42	Z42	X43	Y43	Z43
																																																																																																																																		
66	0.65	-285.6778	1762.47827	1083.1781	-249.46223	1738.99097	1221.28674	-395.33215	1660.44446	1097.63293	-371.25983	1632.3728	1236.21411	-412.14359	1523.05505	1167.17188	-462.36157	1253.7793	1178.47363	-273.25983	1462.20142	1127.35962	-218.18591	1288.43958	1135.39441	-450.4791	1354.96814	1245.21216	-378.71396	1496.95911	975.91443	-433.33292	1302.69604	905.18152	-463.35651	1167.27063	900.12775	-493.81226	1041.68335	878.61212	-467.64386	903.26758	879.23407	-519.68982	920.953	867.46259	-521.28467	854.80005	854.63348	-291.87234	1501.58704	1331.63452	-267.24487	1314.4928	1427.45081	-214.40811	1177.11877	1446.90649	-150.56824	1074.55908	1457.36047	-74.90227	966.27917	1426.31995	-108.92268	951.42914	1469.05542	-54.24575	904.41656	1462.96301	-246.3606	988.34064	1021.99152	-237.43225	970.76727	1278.14453	-452.22937	1035.39648	1112.24194	-451.90421	1036.01099	1227.1012	-264.54715	687.14569	946.50909	-228.67366	489.19916	971.88507	-214.59027	296.46936	965.91278	-121.04715	90.0341	970.01929	-133.00339	55.99475	1027.51501	33.48271	89.2793	932.33344	-354.11362	668.70593	1327.39111	-394.40164	462.18881	1278.0553	-466.54752	287.34091	1277.3562	-514.13635	100.6875	1230.50928	-555.55359	50.34937	1173.11938	-367.48151	38.26825	1244.19556	-376.02502	1799.51392	1198.51917	NaN	NaN	NaN	NaN	NaN	NaN	NaN	NaN	NaN
67	0.66	-278.664	1761.44336	1082.05542	-241.89926	1738.11401	1219.94958	-388.48325	1659.64282	1096.84875	-363.94525	1631.90662	1235.58337	-404.86365	1521.97913	1166.56921	-454.6781	1252.77515	1177.69446	-265.88821	1461.51978	1126.41772	-209.74818	1288.26746	1133.96912	-442.77536	1353.82227	1244.55627	-371.82892	1496.25928	975.23718	-426.40689	1301.8822	904.92029	-456.90808	1166.63318	899.99866	-487.98532	1041.31421	878.72321	-462.43216	902.57819	879.51044	-514.3175	920.58337	867.90521	-516.1189	854.1001	855.4353	-284.42056	1500.70105	1330.80908	-259.4693	1313.23816	1425.84277	-205.4399	1176.45251	1445.82214	-140.74324	1074.35352	1455.92566	-64.19482	966.93195	1424.46863	-98.18246	951.63757	1467.17542	-42.94588	905.11572	1460.9187	-238.69504	987.40131	1021.51434	-230.05978	969.80804	1277.53931	-444.73486	1034.54431	1111.27673	-444.53186	1035.2179	1226.06372	-254.82474	686.44476	946.68121	-218.03896	488.8721	971.84204	-201.94406	296.46829	965.38934	-105.99164	91.08691	969.74261	-118.5717	56.64454	1026.73682	49.14521	91.37209	934.78259	-348.75134	668.1344	1326.83508	-390.35806	461.72192	1277.48889	-464.15497	287.63882	1276.91199	-513.5105	101.3689	1230.19751	-555.14618	51.1911	1172.87024	-367.34619	38.00212	1244.18652	-368.29382	1798.953	1197.89014	-2845.96313	1034.05432	3356.86841	NaN	NaN	NaN	NaN	NaN	NaN
68	0.67	-271.51981	1760.50208	1080.78748	-234.28302	1737.42285	1218.79211	-381.48965	1659.39978	1096.25525	-356.56976	1631.45117	1234.91687	-397.53674	1520.95483	1165.95361	-446.97043	1251.76648	1176.8772	-258.42303	1460.8291	1125.26892	-202.04828	1287.76038	1132.72095	-435.02725	1352.58752	1243.79065	-364.88138	1495.60986	974.59174	-420.04889	1301.43542	904.33856	-450.42926	1166.10815	899.82281	-481.75894	1040.83044	878.73706	-456.66394	901.94922	879.66235	-508.41971	920.16089	868.03772	-510.76303	853.46368	856.10809	-276.73438	1499.75757	1329.94873	-251.50662	1312.34875	1424.9436	-196.53389	1175.74561	1444.68091	-131.06142	1074.00159	1454.07129	-53.67556	967.40308	1422.57605	-87.60108	951.55615	1465.07483	-31.95859	905.6145	1458.66052	-230.87698	986.55048	1020.85071	-222.7739	968.78302	1276.98938	-437.05176	1033.67871	1110.20081	-437.03091	1034.5238	1224.93555	-245.06212	685.6568	946.50934	-206.91597	488.73798	971.55426	-189.65419	296.53397	964.82434	-92.44615	91.81005	969.72095	-105.78092	56.91437	1026.63159	63.209	92.69386	937.36835	-343.31689	667.50555	1326.13318	-386.30136	461.35278	1276.71521	-461.75348	287.96066	1276.45398	-512.90985	102.12344	1229.8562	-554.73633	52.05265	1172.15417	-367.26227	37.95923	1244.28687	-360.63907	1798.43005	1196.92102	-2845.98193	1034.04993	3356.78638	NaN	NaN	NaN	NaN	NaN	NaN
69	0.68	-264.17654	1759.49207	1079.85913	-226.79214	1736.599	1217.43359	-374.49274	1658.67578	1095.5199	-349.1355	1630.94446	1234.10791	-390.15097	1519.97314	1165.30798	-439.5296	1250.93347	1176.0155	-250.95462	1460.203	1124.28992	-194.29906	1287.17261	1131.5365	-427.1261	1351.46899	1243.00342	-357.87457	1494.89575	973.81903	-413.03864	1300.84106	903.68243	-443.72058	1165.46704	899.39526	-475.3327	1039.93481	878.76044	-450.49841	901.11615	879.74994	-502.34445	919.6073	868.06628	-505.0098	852.68451	856.62604	-269.14301	1498.88977	1328.89807	-243.54549	1311.24683	1423.40552	-187.76347	1174.99377	1443.40015	-121.60898	1073.79614	1452.42859	-43.64017	967.60297	1420.35645	-77.31817	951.39404	1462.8252	-21.22605	905.8847	1456.28711	-222.93246	985.62604	1019.96198	-215.35895	967.75598	1276.29187	-429.32443	1032.89832	1109.07104	-429.41199	1033.77002	1223.74255	-234.84399	685.21014	946.07855	-195.45146	488.79001	971.00409	-177.63202	296.65036	964.13269	-80.22271	92.15876	970.07489	-94.14458	57.31107	1026.77734	75.8161	93.19125	939.87604	-337.75665	666.92108	1325.17395	-382.21411	461.29919	1276.63123	-459.45239	288.42776	1275.90857	-512.27112	102.96414	1229.5907	-554.14862	52.97256	1171.74976	-367.13528	37.92902	1244.32141	-353.03625	1797.88147	1195.9386	-2845.18481	1034.06116	3360.28784	NaN	NaN	NaN	NaN	NaN	NaN
